<svg xmlns="http://www.w3.org/2000/svg" width="32" height="32"
    viewBox="0 0 32 32">
    <defs id="SvgjsDefs1016">
        <linearGradient id="SvgjsLinearGradient1023">
            <stop id="SvgjsStop1024" stop-color="#2d388a" offset="0"></stop>
            <stop id="SvgjsStop1025" stop-color="#00aeef" offset="1"></stop>
        </linearGradient>
    </defs>
    <g id="SvgjsG1018" featurekey="symbolFeature-0"
        transform="matrix(0.395475, 0, 0, 0.395475, -3.441122, -3.711411)"
        fill="url(#SvgjsLinearGradient1023)">
        <g>
            <path fill="url(#SvgjsLinearGradient1023)"
                d="M63.7,90.3c-2.3,0-4.6-0.5-6.6-1.5c-0.5,0.2-1-0.1-1.2-0.5c0,0,0-0.1-0.1-0.1c-2.6-1.5-4.7-3.8-6-6.8   L49,79.6c-0.2-0.1-0.4-0.3-0.5-0.5c-0.1-0.2-0.1-0.5,0-0.7l-1.3-3c-8-1.7-14.7-7.1-18.1-14.5c-5.7-12.9,0.2-28.1,13.3-33.9   c6.3-2.8,13.3-3,19.8-0.6c6.4,2.4,11.5,7.2,14.3,13.5c3.3,7.4,2.8,16-1.3,23.1l2.7,6c1.4,3.1,1.6,6.4,0.9,9.4   c0.1,0.3,0,0.6-0.2,0.9c-1.2,4.2-4.2,7.8-8.5,9.8C67.9,89.8,65.8,90.3,63.7,90.3z M59.6,87.6c3,0.9,6.4,0.8,9.5-0.5   c3.1-1.4,5.4-3.8,6.8-6.7L59.6,87.6z M53.9,84c0.9,1,2.1,1.9,3.3,2.6l19.6-8.7c0.3-1.3,0.4-2.7,0.3-4.1L53.9,84z M51,79.1l0.6,1.4   c0.3,0.7,0.6,1.3,1,1.9l24-10.7c-0.2-0.7-0.4-1.3-0.7-2l-0.6-1.4l-12.2,5.4c0,0,0,0,0,0c0,0,0,0,0,0L51,79.1z M53,26.6   c-3.3,0-6.7,0.7-9.8,2.1c-12,5.4-17.5,19.4-12.2,31.3C34,67,40.4,72,48,73.5c0.3,0.1,0.6,0.3,0.7,0.6l1.4,3.2l11.3-5l-6.9-15.6   c-0.2-0.5,0-1.1,0.5-1.3c0.5-0.2,1.1,0,1.3,0.5l6.9,15.6l11.3-5l-1.4-3.2c-0.1-0.3-0.1-0.6,0.1-0.9c4-6.6,4.5-14.8,1.4-21.8l0,0   c-2.6-5.8-7.2-10.2-13.2-12.4C58.7,27.1,55.8,26.6,53,26.6z"></path>
            <path fill="url(#SvgjsLinearGradient1023)"
                d="M53.3,58c-2.7,0-5.3-1.5-6.5-4.2c-0.2-0.5,0-1.1,0.5-1.3c0.5-0.2,1.1,0,1.3,0.5c1.1,2.5,4.1,3.7,6.7,2.5   c1.2-0.6,2.2-1.6,2.7-2.8c0.5-1.3,0.5-2.6-0.1-3.9c-0.2-0.5,0-1.1,0.5-1.3c0.5-0.2,1.1,0,1.3,0.5c0.8,1.7,0.8,3.6,0.1,5.4   c-0.7,1.8-2,3.2-3.8,3.9C55.3,57.8,54.3,58,53.3,58z"></path>
            <path fill="url(#SvgjsLinearGradient1023)"
                d="M26.7,32.3c-0.2,0-0.4-0.1-0.6-0.2l-6.6-5.3c-0.4-0.3-0.5-1-0.2-1.4c0.3-0.4,1-0.5,1.4-0.2l6.6,5.3   c0.4,0.3,0.5,1,0.2,1.4C27.3,32.2,27,32.3,26.7,32.3z M39,22.8c-0.4,0-0.7-0.2-0.9-0.6l-3.4-7.7c-0.2-0.5,0-1.1,0.5-1.3   c0.5-0.2,1.1,0,1.3,0.5l3.4,7.7c0.2,0.5,0,1.1-0.5,1.3C39.2,22.7,39.1,22.8,39,22.8z M54.5,19.8C54.5,19.8,54.5,19.8,54.5,19.8   c-0.6,0-1-0.5-1-1.1l0.5-8.4c0-0.6,0.5-1,1.1-0.9c0.6,0,1,0.5,0.9,1.1l-0.5,8.4C55.5,19.4,55,19.8,54.5,19.8z"></path>
        </g>
    </g>
</svg>