<svg xmlns="http://www.w3.org/2000/svg" width="219.69230769230768" height="319.2"
    viewBox="0 0 390.99999999999994 568.0999999999999">
    <defs id="SvgjsDefs1016">
        <linearGradient id="SvgjsLinearGradient1023">
            <stop id="SvgjsStop1024" stop-color="#2d388a" offset="0"></stop>
            <stop id="SvgjsStop1025" stop-color="#00aeef" offset="1"></stop>
        </linearGradient>
    </defs>
    <g id="SvgjsG1017" featurekey="rootContainer" transform="matrix(1.15,0,0,1.15,-5.75,0)"
        fill="#fb9c2a">
        <path fill-rule="evenodd"
            d="M5,65 L175,0 L345, 65 L175, 10 z M5,414 L175,494 L345,409 L175, 484 z"></path>
    </g>
    <g id="SvgjsG1018" featurekey="symbolFeature-0"
        transform="matrix(2.3307445457957554,0,0,2.3307445457957554,81.42319023555659,92.12669541874152)"
        fill="url(#SvgjsLinearGradient1023)">
        <g>
            <path fill="url(#SvgjsLinearGradient1023)"
                d="M63.7,90.3c-2.3,0-4.6-0.5-6.6-1.5c-0.5,0.2-1-0.1-1.2-0.5c0,0,0-0.1-0.1-0.1c-2.6-1.5-4.7-3.8-6-6.8   L49,79.6c-0.2-0.1-0.4-0.3-0.5-0.5c-0.1-0.2-0.1-0.5,0-0.7l-1.3-3c-8-1.7-14.7-7.1-18.1-14.5c-5.7-12.9,0.2-28.1,13.3-33.9   c6.3-2.8,13.3-3,19.8-0.6c6.4,2.4,11.5,7.2,14.3,13.5c3.3,7.4,2.8,16-1.3,23.1l2.7,6c1.4,3.1,1.6,6.4,0.9,9.4   c0.1,0.3,0,0.6-0.2,0.9c-1.2,4.2-4.2,7.8-8.5,9.8C67.9,89.8,65.8,90.3,63.7,90.3z M59.6,87.6c3,0.9,6.4,0.8,9.5-0.5   c3.1-1.4,5.4-3.8,6.8-6.7L59.6,87.6z M53.9,84c0.9,1,2.1,1.9,3.3,2.6l19.6-8.7c0.3-1.3,0.4-2.7,0.3-4.1L53.9,84z M51,79.1l0.6,1.4   c0.3,0.7,0.6,1.3,1,1.9l24-10.7c-0.2-0.7-0.4-1.3-0.7-2l-0.6-1.4l-12.2,5.4c0,0,0,0,0,0c0,0,0,0,0,0L51,79.1z M53,26.6   c-3.3,0-6.7,0.7-9.8,2.1c-12,5.4-17.5,19.4-12.2,31.3C34,67,40.4,72,48,73.5c0.3,0.1,0.6,0.3,0.7,0.6l1.4,3.2l11.3-5l-6.9-15.6   c-0.2-0.5,0-1.1,0.5-1.3c0.5-0.2,1.1,0,1.3,0.5l6.9,15.6l11.3-5l-1.4-3.2c-0.1-0.3-0.1-0.6,0.1-0.9c4-6.6,4.5-14.8,1.4-21.8l0,0   c-2.6-5.8-7.2-10.2-13.2-12.4C58.7,27.1,55.8,26.6,53,26.6z"></path>
            <path fill="url(#SvgjsLinearGradient1023)"
                d="M53.3,58c-2.7,0-5.3-1.5-6.5-4.2c-0.2-0.5,0-1.1,0.5-1.3c0.5-0.2,1.1,0,1.3,0.5c1.1,2.5,4.1,3.7,6.7,2.5   c1.2-0.6,2.2-1.6,2.7-2.8c0.5-1.3,0.5-2.6-0.1-3.9c-0.2-0.5,0-1.1,0.5-1.3c0.5-0.2,1.1,0,1.3,0.5c0.8,1.7,0.8,3.6,0.1,5.4   c-0.7,1.8-2,3.2-3.8,3.9C55.3,57.8,54.3,58,53.3,58z"></path>
            <path fill="url(#SvgjsLinearGradient1023)"
                d="M26.7,32.3c-0.2,0-0.4-0.1-0.6-0.2l-6.6-5.3c-0.4-0.3-0.5-1-0.2-1.4c0.3-0.4,1-0.5,1.4-0.2l6.6,5.3   c0.4,0.3,0.5,1,0.2,1.4C27.3,32.2,27,32.3,26.7,32.3z M39,22.8c-0.4,0-0.7-0.2-0.9-0.6l-3.4-7.7c-0.2-0.5,0-1.1,0.5-1.3   c0.5-0.2,1.1,0,1.3,0.5l3.4,7.7c0.2,0.5,0,1.1-0.5,1.3C39.2,22.7,39.1,22.8,39,22.8z M54.5,19.8C54.5,19.8,54.5,19.8,54.5,19.8   c-0.6,0-1-0.5-1-1.1l0.5-8.4c0-0.6,0.5-1,1.1-0.9c0.6,0,1,0.5,0.9,1.1l-0.5,8.4C55.5,19.4,55,19.8,54.5,19.8z"></path>
        </g>
    </g>
    <g id="SvgjsG1019" featurekey="nameFeature-0"
        transform="matrix(3.5522897088505716,0,0,3.5522897088505716,21,297.7773551442583)"
        fill="#137dc5">
        <path
            d="M9.32 24.92 l-5.52 0 l0 11.28 l5.56 0 l0 3.8 l-9.36 0 l0 -28.56 l9.36 0 l0 3.8 l-5.56 0 l0 5.88 l5.52 0 l0 3.8 z M24.188000000000002 23.72 l0 3.48 l-10.8 0 l0 -3.48 l10.8 0 z M33.576 39.92 c-2.96 0 -5.36 -2.4 -5.36 -5.36 l0 -17.76 c0 -2.96 2.4 -5.36 5.36 -5.36 s5.36 2.4 5.36 5.36 l0 1.6 l-3.8 0 l0 -1.6 c0 -0.84 -0.72 -1.56 -1.56 -1.56 s-1.56 0.72 -1.56 1.56 l0 17.76 c0 0.84 0.72 1.56 1.56 1.56 s1.56 -0.72 1.56 -1.56 l0 -2.56 l3.8 0 l0 2.56 c0 2.96 -2.4 5.36 -5.36 5.36 z M46.724 36.24 l5.52 0 l0 3.76 l-9.28 0 l0 -28.72 l3.76 0 l0 24.96 z M66.27199999999999 40 l-1.44 -9.88 l-4.04 0 l-1.32 9.88 l-3.84 0 l4.32 -28.6 l5.16 0 l5 28.6 l-3.84 0 z M61.312 26.32 l2.96 0 l-1.52 -10.4 z M78.14 40.24 c-3.04 0 -5.48 -2.48 -5.48 -5.48 l0 -4.36 l3.88 0 l0 4.36 c0 0.88 0.72 1.6 1.6 1.6 s1.56 -0.72 1.56 -1.6 l0 -3.8 l-7.04 -9.72 l0 -4.96 c0 -3.04 2.44 -5.52 5.48 -5.52 c3 0 5.44 2.48 5.44 5.52 l0 4.32 l-3.88 0 l0 -4.32 c0 -0.92 -0.68 -1.6 -1.56 -1.6 s-1.6 0.68 -1.6 1.6 l0 3.64 l7.04 9.72 l0 5.12 c0 3 -2.44 5.48 -5.44 5.48 z M93.08800000000001 40.24 c-3.04 0 -5.48 -2.48 -5.48 -5.48 l0 -4.36 l3.88 0 l0 4.36 c0 0.88 0.72 1.6 1.6 1.6 s1.56 -0.72 1.56 -1.6 l0 -3.8 l-7.04 -9.72 l0 -4.96 c0 -3.04 2.44 -5.52 5.48 -5.52 c3 0 5.44 2.48 5.44 5.52 l0 4.32 l-3.88 0 l0 -4.32 c0 -0.92 -0.68 -1.6 -1.56 -1.6 s-1.6 0.68 -1.6 1.6 l0 3.64 l7.04 9.72 l0 5.12 c0 3 -2.44 5.48 -5.44 5.48 z"></path>
    </g>
</svg>